<!-- Questo file è licenziato in base ai termini della licenza Creative Commons Attribuzione-Condividi allo stesso modo 3.0 Unported https://creativecommons.org/licenses/by-sa/3.0/deed.it -->
<svg xmlns="http://www.w3.org/2000/svg" width="1010.4" height="1010.4" xmlns:v="https://vecta.io/nano"><path d="M296.022 1010.2L.2 714.378V296.022L296.022.2h418.356L1010.2 296.022v418.356L714.378 1010.2z"/><path d="M298.093 1005.2L5.2 712.307V298.093L298.093 5.2h414.214L1005.2 298.093v414.214L712.307 1005.2z" fill="#fff"/><path d="M699.052 37.2L973.2 311.348v387.704L699.052 973.2H311.348L37.2 699.052V311.348L311.348 37.2z" fill="#d40000"/><path d="M127.138 505.488l71.3 66.125c4.025 3.45 6.037 7.763 6.037 12.937 0 13.225-6.517 19.838-19.55 19.838-5.558 0-10.063-1.917-13.512-5.75-7.475-7.858-13.608-15.716-18.4-23.575l-54.625 33.062c8.625 13.992 16.867 25.3 24.725 33.925 16.483 17.25 36.896 25.875 61.237 25.875s44.946-8.433 61.812-25.3 25.3-37.471 25.3-61.812-8.05-44.754-24.15-61.237l-15.237-15.238-71.3-65.837c-4.025-3.258-6.038-7.618-6.037-13.081s2.012-10.206 6.037-14.231c3.45-3.45 7.954-5.175 13.512-5.175s10.062 2.013 13.512 6.038c9.008 9.009 15.142 16.771 18.4 23.287l55.2-33.35c-9.392-14.949-17.633-26.162-24.725-33.637-16.483-17.249-37.279-25.875-62.387-25.875-23.192 0-43.412 8.242-60.662 24.725-17.25 17.25-25.875 37.854-25.875 61.812 0 23.575 8.242 43.988 24.725 61.237zm172.213-165.169v69.862h39.388v259.9h77.337v-259.9h37.662v-69.862zm207.862 54.625c-15.717 35.459-23.575 71.971-23.575 109.537 0 37.375 7.858 74.654 23.575 111.837 21.658 36.992 47.341 55.487 77.05 55.487 29.516 0 53.858-18.496 73.025-55.487 14.566-35.266 21.85-71.779 21.85-109.537 0-37.183-7.283-74.462-21.85-111.837-20.317-37.566-45.233-56.349-74.75-56.35-28.942.001-54.05 18.784-75.325 56.35zm57.212 43.125c3.067-19.741 8.912-29.612 17.538-29.613 9.008.001 15.141 9.871 18.4 29.613 3.066 21.85 4.6 43.413 4.6 64.687 0 20.892-1.533 43.892-4.6 69-4.792 18.784-11.117 28.175-18.975 28.175s-13.513-9.583-16.963-28.75c-4.025-18.591-6.038-39.435-6.037-62.531s2.012-46.622 6.037-70.581zm179.687-98.612v331.487h73.6V548.469c32.583-.383 58.65-11.596 78.2-33.638 17.825-19.166 26.737-42.885 26.738-71.156s-8.913-52.085-26.738-71.444c-19.55-21.849-45.617-32.774-78.2-32.775zm75.9 67.562c22.425 1.15 34.404 13.129 35.937 35.937-1.917 12.267-5.846 21.419-11.787 27.456s-13.992 8.865-24.15 8.481z" fill="#fff"/></svg>
